<?xml version="1.0" encoding="utf-8"?>
<!-- Generator: Adobe Illustrator 19.2.1, SVG Export Plug-In . SVG Version: 6.00 Build 0)  -->
<!DOCTYPE svg PUBLIC "-//W3C//DTD SVG 1.1//EN" "http://www.w3.org/Graphics/SVG/1.1/DTD/svg11.dtd">
<svg version="1.1" id="Layer_1" xmlns="http://www.w3.org/2000/svg" xmlns:xlink="http://www.w3.org/1999/xlink" x="0px" y="0px"
	 viewBox="0 0 90 90" style="enable-background:new 0 0 90 90;" xml:space="preserve">
<style type="text/css">
	.st0{fill:#FFFFFF;}
</style>
<g>
	<g>
		<path class="st0" d="M47,18.7c8.2,2.7,15.4,7.5,21.1,13.7c0.9-0.8,2-1.3,3.2-1.3c0.3,0,0.7,0.1,1,0.1c2.1-5.8,2.8-12.1,1.9-18.5
			c0,0,0-0.1,0-0.1C70.4,9.2,66,6.4,61.1,4.4C55.9,8.3,51.1,13.1,47,18.7z"/>
		<path class="st0" d="M27.3,16.5c1.5-0.1,3-0.2,4.5-0.2c3.9,0,7.7,0.5,11.3,1.3c4.2-5.7,9.1-10.5,14.4-14.4C53.5,2,49.3,1.4,45,1.4
			c-5.1,0-9.9,0.9-14.4,2.4c-2.4,3.3-4.4,6.9-6,10.7C25.8,14.9,26.7,15.6,27.3,16.5z"/>
		<path class="st0" d="M22.4,24.1c-0.2,0-0.4,0.1-0.6,0.1c-0.5,2.8-0.8,5.6-0.8,8.5c0,8.3,2.1,16.2,5.8,23c0.8-0.1,1.6-0.1,2.5,0
			c0.4-8.6,2.6-17.5,6.6-26.1c1.3-2.8,2.7-5.4,4.3-7.9c-3.5-0.8-7.2-1.2-10.9-1.2c-0.7,0-1.3,0-2,0.1C26.5,22.2,24.7,23.6,22.4,24.1
			z"/>
		<path class="st0" d="M44.3,22.8c-1.5,2.4-2.9,5-4.2,7.6C36,39.2,33.8,48.3,33.5,57c1.6,0.9,2.9,2.1,3.8,3.4
			c11.9-2.5,21.9-9,28.6-17.5c-0.3-1.1-0.5-2.2-0.5-3.5c0-1,0.1-2,0.4-2.8C59.9,30.3,52.6,25.5,44.3,22.8z"/>
		<path class="st0" d="M20.3,60.4c0.5-1.2,1.3-2.2,2.4-3c-3.7-6.8-5.8-14.7-5.8-23c0-3.6,0.4-7.1,1.2-10.4c-1-0.3-1.8-0.8-2.4-1.5
			C12,23.6,8.6,25,5.3,26.8c-2.5,5.5-4,11.7-4,18.2c0,3.7,0.5,7.3,1.3,10.8c5.2,2.8,11,4.7,17.2,5.5C20,61,20.1,60.7,20.3,60.4z"/>
		<path class="st0" d="M71.3,47.9c-0.9,0-1.7-0.3-2.4-0.7c-6.9,9-17.5,15.8-30.2,18.1c0,0.9-0.2,1.8-0.6,2.7
			c-0.2,0.4-0.4,0.8-0.7,1.2c8.4,7.5,19.4,12.1,31.5,12.2c3.5-2.3,6.6-5,9.2-8.2c0.1-1.2,0.2-2.5,0.2-3.7c0-7.9-1.9-15.4-5.3-22
			C72.6,47.8,72,47.9,71.3,47.9z"/>
		<path class="st0" d="M34.5,72c1.2,6,3.3,11.5,6.3,16.5c1.4,0.1,2.8,0.2,4.2,0.2c7.7,0,14.9-2,21.2-5.5c-0.2,0-0.4,0-0.6,0
			C53.8,83.2,43,78.9,34.5,72z"/>
		<path class="st0" d="M26,71.9c-3.1-1.3-5.2-3.8-6-6.5c-5.9-1.1-11.3-3.1-16.2-6c5.1,14.6,17.6,25.6,33.1,28.5
			c-2.8-4.5-4.8-9.7-6.1-15.1C29.2,72.8,27.6,72.5,26,71.9z"/>
		<path class="st0" d="M20.1,14.4c0.4-0.1,0.8-0.2,1.2-0.2c1.4-3.1,3.1-6,5.1-8.7c-7.9,3.7-14.5,9.8-18.9,17.2
			c2.3-1.3,4.7-2.4,7.2-3.4C15,17.2,17.1,15.1,20.1,14.4z"/>
		<path class="st0" d="M88.6,45c0-11.7-4.6-22.2-12-30.1c0.2,0.8,0.3,1.5,0.4,2.3c0.9,5.7,0.4,11.3-1.3,16.6c1,1.5,1.6,3.5,1.6,5.6
			c0,1.9-0.4,3.6-1.2,5c3,6.3,4.7,13.4,4.7,20.8c0,1.7-0.1,3.3-0.3,5C85.6,63.1,88.6,54.4,88.6,45z"/>
	</g>
	<ellipse transform="matrix(0.3894 -0.9211 0.9211 0.3894 -41.3035 66.0984)" class="st0" cx="29.2" cy="64.2" rx="4.3" ry="5.1"/>
	<ellipse class="st0" cx="71.3" cy="39.5" rx="2.5" ry="3.6"/>
	<ellipse transform="matrix(0.9727 -0.2319 0.2319 0.9727 -3.8874 5.4534)" class="st0" cx="21.3" cy="19.3" rx="2.9" ry="2.1"/>
</g>
</svg>
