<?xml version="1.0" encoding="utf-8"?>
<!-- Generator: Adobe Illustrator 19.2.1, SVG Export Plug-In . SVG Version: 6.00 Build 0)  -->
<!DOCTYPE svg PUBLIC "-//W3C//DTD SVG 1.1//EN" "http://www.w3.org/Graphics/SVG/1.1/DTD/svg11.dtd">
<svg version="1.1" id="Layer_1" xmlns="http://www.w3.org/2000/svg" xmlns:xlink="http://www.w3.org/1999/xlink" x="0px" y="0px"
	 viewBox="0 0 500 500" style="enable-background:new 0 0 500 500;" xml:space="preserve">
<style type="text/css">
	.st0{display:none;}
	.st1{display:inline;}
	.st2{fill:#FFFFFF;}
</style>
<g id="max_width__x2F__height" class="st0">
	<path class="st1" d="M499,1v498H1V1H499 M500,0H0v500h500V0L500,0z"/>
</g>
<g id="androd">
	<path class="st2" d="M310.6,53.2l23.8-34.6c1.4-2.1,1.1-4.7-0.8-6c-1.8-1.3-4.5-0.6-5.9,1.4L303,50c-16.3-6.4-34.4-10-53.5-10
		s-37.2,3.6-53.5,10l-24.7-35.9c-1.4-2.1-4.1-2.7-5.9-1.4c-1.8,1.3-2.2,4-0.8,6l23.8,34.6c-37.8,17.6-64.4,51.1-67.8,90.1h257.7
		C375,104.3,348.5,70.8,310.6,53.2"/>
	<path class="st2" d="M195.7,107.7c-7.9,0-14.3-6.4-14.3-14.3c0-7.9,6.4-14.3,14.3-14.3c7.9,0,14.3,6.4,14.3,14.3
		C210,101.3,203.6,107.7,195.7,107.7"/>
	<path class="st2" d="M303.4,107.7c-7.9,0-14.3-6.4-14.3-14.3c0-7.9,6.4-14.3,14.3-14.3c7.9,0,14.3,6.4,14.3,14.3
		C317.6,101.3,311.3,107.7,303.4,107.7"/>
	<path class="st2" d="M104.2,306.2c0,15.9-12.9,28.7-28.7,28.7l0,0c-15.9,0-28.7-12.9-28.7-28.7V189.9c0-15.9,12.9-28.7,28.7-28.7
		l0,0c15.9,0,28.7,12.9,28.7,28.7C104.2,189.9,104.2,306.2,104.2,306.2z"/>
	<path class="st2" d="M120.7,162.1v210c0,12.5,10.1,22.6,22.6,22.6H170v64.6c0,15.9,12.9,28.7,28.7,28.7s28.7-12.9,28.7-28.7v-64.6
		h44.1v64.6c0,15.9,12.9,28.7,28.7,28.7s28.7-12.9,28.7-28.7v-64.6h26.7c12.5,0,22.6-10.1,22.6-22.6v-210H120.7z"/>
	<path class="st2" d="M395,306.2c0,15.9,12.9,28.7,28.7,28.7l0,0c15.9,0,28.7-12.9,28.7-28.7V189.9c0-15.9-12.9-28.7-28.7-28.7l0,0
		c-15.9,0-28.7,12.9-28.7,28.7V306.2z"/>
</g>
</svg>
