<?xml version="1.0" encoding="utf-8"?>
<!-- Generator: Adobe Illustrator 19.2.1, SVG Export Plug-In . SVG Version: 6.00 Build 0)  -->
<!DOCTYPE svg PUBLIC "-//W3C//DTD SVG 1.1//EN" "http://www.w3.org/Graphics/SVG/1.1/DTD/svg11.dtd">
<svg version="1.1" id="Layer_1" xmlns="http://www.w3.org/2000/svg" xmlns:xlink="http://www.w3.org/1999/xlink" x="0px" y="0px"
	 viewBox="0 0 654.4 130.5" style="enable-background:new 0 0 654.4 130.5;" xml:space="preserve">
<g>
	<g>
		<path d="M87.9,58.1h14.9l11.2,71.1H98.1l-2.2-15.8H66l-10.7,15.8H38.6L87.9,58.1z M94.1,99.7l-3.2-23.3L75.3,99.7H94.1z"/>
		<path d="M135.7,75.1H151L148.1,86c5.4-8,11.7-12.6,20.6-11.9l-4.3,16h-0.8c-10.2,0-18.1,5.9-21.8,19.9l-5.1,19.2h-15.3L135.7,75.1
			z"/>
		<path d="M167.5,106c0-8.8,3.5-16.7,9.3-22.4c5.9-5.9,13.9-9.5,22.6-9.5c11.9,0,18.5,5.4,22.2,11.9l-11.7,8.3
			c-2.7-4.1-5.7-7.1-11.7-7.1c-3.5,0-7,1.7-9.7,4.4c-3.5,3.5-5.9,8.8-5.9,14.3c0,7,4.6,11.4,10.6,11.4c4.7,0,8.2-1.9,12.2-5.3
			l7.9,10c-5.7,5-11.4,8.4-20.6,8.4C178,130.5,167.5,120.8,167.5,106z"/>
		<path d="M284.5,106.6h-11.6l-6.1,22.6h-15.5l19-70.6H296c10.5,0,17.7,2.3,22.4,7.1c3.5,3.5,5.5,8.5,5.5,14.2
			c0,6.8-2.3,12.6-6.5,16.8c-2.7,2.7-7.5,6.5-16.3,8.5l12,24.1h-17.7L284.5,106.6z M290.5,92.9c6.1,0,11.2-1.5,14.2-4.5
			c1.8-1.8,2.9-4.2,2.9-7.2c0-2.4-0.7-4.1-2.2-5.7c-1.9-1.9-5.3-2.9-10.3-2.9h-13l-5.4,20.3H290.5z"/>
		<path d="M341.9,107.5c0.5,6.4,4.3,10.6,12.4,10.6c4,0,7.6-1.2,12-4.3l7.1,9.5c-4.8,4-11.6,7.2-20.8,7.2c-15.5,0-25-9.1-25-24
			c0-8.4,3.6-17,9.8-23.1c5.6-5.6,13.2-9.2,22.3-9.2c14,0,22.1,9.1,22.1,21.1c0,3.8-1,8.2-2.7,12.3H341.9z M343.4,98h23.5
			c0.3-1,0.5-2.2,0.5-3.5c0-4.4-2.6-8-8.9-8c-4.2,0-8,1.7-10.8,4.5C345.8,92.9,344.4,95.2,343.4,98z"/>
		<path d="M385.5,115.7c0-5.5,1.9-9.8,5.1-13c4.2-4.2,10.7-6.5,18.2-6.5c5.9,0,10.7,1,15.2,2.4l0.2-0.7c0.3-1.2,0.6-2.4,0.6-4
			c0-3.7-2.6-6.4-10.2-6.4c-5.2,0-10.5,1.3-14.4,2.9l-2.4-12.1c5.6-2.3,12.4-3.8,20.1-3.8c14.5,0,21.9,6.1,21.9,16.7
			c0,2.8-0.5,5.5-1.2,8.2l-8,29.9h-14.8l1.6-6.3c-4.3,4.6-9.8,7.3-16.1,7.3C391.8,130.3,385.5,124.2,385.5,115.7z M421.4,108.9
			l0.4-1.4c-2.6-1-6.4-1.9-10.1-1.9c-3.7,0-6.9,1.1-8.8,3c-1.4,1.4-2.2,3.2-2.2,5.5c0,3.3,2.7,5.8,7.1,5.8
			C414.1,119.8,419.7,114.7,421.4,108.9z"/>
		<path d="M448.3,106c0-8.8,3.5-16.7,9.3-22.4c5.9-5.9,13.9-9.5,22.6-9.5c11.9,0,18.5,5.4,22.2,11.9l-11.7,8.3
			c-2.7-4.1-5.7-7.1-11.7-7.1c-3.5,0-7,1.7-9.7,4.4c-3.5,3.5-5.9,8.8-5.9,14.3c0,7,4.6,11.4,10.6,11.4c4.7,0,8.2-1.9,12.2-5.3
			l7.9,10c-5.7,5-11.4,8.4-20.6,8.4C458.8,130.5,448.3,120.8,448.3,106z"/>
		<path d="M506.2,119.6c0-2.2,0.4-4.3,1-6.8l6.6-24.5h-6.5l3.5-13.1h6.5l3.7-13.8h15.3l-3.7,13.8h12.7l-3.5,13.1h-12.7L523,111
			c-0.2,0.8-0.4,1.8-0.4,2.4c0,2,1.3,3.2,4.1,3.2c2.4,0,5.3-0.6,7.9-1.7l-3.5,13c-3,1.4-7,2.2-11.1,2.2
			C510.7,130.2,506.2,125.5,506.2,119.6z"/>
		<path d="M603,99.2c0,8.2-3.5,16.1-9.4,22c-5.7,5.7-13.3,9.3-21.9,9.3c-16,0-26-10.6-26-25c0-8.2,3.5-16.1,9.4-22
			c5.7-5.7,13.3-9.3,21.9-9.3C593.1,74.1,603,84.7,603,99.2z M582.3,113.1c3.7-3.6,5.8-9.3,5.8-13.5c0-8-4.7-12.3-11.7-12.3
			c-3.8,0-7.3,1.7-9.8,4.2c-3.7,3.6-5.8,9.3-5.8,13.5c0,8,4.7,12.3,11.7,12.3C576.3,117.3,579.7,115.6,582.3,113.1z"/>
		<path d="M621.4,75.1h15.3L633.8,86c5.5-8,11.7-12.6,20.6-11.9l-4.3,16h-0.8c-10.2,0-18.1,5.9-21.8,19.9l-5.1,19.2H607L621.4,75.1z
			"/>
	</g>
	<path d="M320.5,32.4c-4.8-2.7-9.8-5.4-14.9-7.8C190.5-30.5,56.3,10,6,115.1c-2.2,4.6-4.2,9.4-6,14.1
		C60.2,23.9,197.5-17.5,320.5,32.4z"/>
</g>
</svg>
